<svg xmlns="http://www.w3.org/2000/svg" viewBox="0 0 216.5 220" style="enable-background:new 0 0 216.5 220" xml:space="preserve"><style>.st3{fill:#eaf4fe}.st9{fill:#e1ebf4}.st10{fill:#9ac7f7}</style><g id="Layer_4"><path d="M123.6 4.6C64.6-3.8 9.6 37.3 1.1 96.4c-8.5 59.1 32.7 114 91.8 122.5 59.1 8.5 114-32.7 122.5-91.7 8.4-59.1-32.7-114.1-91.8-122.6z" style="fill:#c5e1f9"/><path d="M128.3 5.4c33.5 22.4 53.1 62.9 47 105.4-8.5 59.1-63.4 100.2-122.5 91.7-1.6-.2-3.1-.5-4.7-.8 13 8.7 28.2 14.8 44.7 17.1 59.1 8.5 114-32.7 122.5-91.7 8.3-57.4-30.5-111-87-121.7z" style="fill:#b5d5ea"/><path class="st9" d="M206.5 155.6c-1.4-.2-3.4.2-3.4.7-.1.5-2.2 1.1-2.8 1.3-.7.2-2.2 2-2.6 2.6-.4.6-1.9.2-2.5.4-.6.2-2 1-2.1 1.6-.1.6-.4.5-.7-.2l-.9.7-1 .9c-.8 1.6-2.8 3.4-3.4 3.5-.6.1-1.1 2.9-1.3 4.1-.2 1.2.1 2.7.6 3.3v.9l-.1 1.9c-.5 1.4.4 2.8.7 3.1.3.3 3 0 4.1-.1.4 0 1-.2 1.5-.4 5.9-7.2 10.8-15.3 14.7-24-.4-.2-.6-.3-.8-.3zM29.3 132.9c-.2.3 1.4 2.5 2.1 3.3.6.8 1.7 4.2 1.9 5.3.2 1.1-.3 2.8-.4 3.2-.2.4.2 1.3.2 1.7 0 .4-1.2 3.4-1.1 4.7.1 1.3-2.2 5-2.5 7-.2 2 .3 4.7.7 4.5.4-.2.2 1.9-.4 2-.6.2-1.6 1.6-1.2 1.7.3.1-.3 1.6-.3 2.3 0 .6-.1 4.8-.1 5.8s1.1 3.7 1.2 4.6c.2.9.3 2.5.4 2.8.1.3.2.5.2.5s1.1.6 1.4.9c.3.3 2.6.5 3.4.4.8-.1.2-.8-.1-1.3-.3-.4-.3-2.3-.7-2.5-.4-.2-.2-2.6.2-3 .4-.5 1.9-1.1 2.1-1.5.2-.4.6-2.4.2-2.7-.3-.3.5-2.7.4-3.9-.1-1.3 2.4-2 2.7-3 .3-.9 3-1.6 3.7-2 .6-.4 1.5-3.1 1.4-3.7-.2-.6 1.1-.9 1.7-.8.5.1 1.2-.2 1.4-.2.2 0 1-1.1 1.4-1.3.4-.2 1.5-3 2.2-3.4.7-.4 1.5-2.1 1.6-2.6.1-.5 1.3-1.9 1.7-2.3.4-.4 2.9-1.2 3.4-1.3.5-.1 1.7-3.9 2-5.2.4-1.4 1.3-3.1 1.5-3.6.1-.4.9-.7 1.1-.9.2-.1 1-1.8 1.4-2.2.4-.4 2-1.9 2.1-2.2.1-.4.4-1.3.8-2.1l.1-.9.2-1.5c-.3-1.2-1.3-2.9-1.7-2.6-.4.3-1.7-1.3-2.4-1.7-.7-.4-2.6-.9-3-.9-.5-.1-1.9-1.7-2.6-2-.7-.3-2.6-1-2.9-1.2-.3-.3-.4-3.2-1.8-4.3-1.4-1.1-3.8-3.7-4-4.5-.2-.8-2.9-2.9-3.7-3.5-.8-.6-2.2-.9-2.4-.8-.2.1-1.1-1.7-1.6-2.3-.5-.6-2.2-1.2-2.4-.8-.1.4-1.3 0-1.5-.4-.2-.4-1.2 0-1.6.1-.4.1-2.2 2.1-3 2.5-.7.4-1.4-.7-1.8-1-.4-.3-2.2 0-2.7.3s-1.2-2.6-.8-3.8c.4-1.2-.6-3.8-1.6-4.1-1-.2-1-2.8-.6-3.8.3-.9-1.7-1.8-2.2-1.9-.5-.2-2 1-2.3 1.6-.3.6-4.8-1.6-3.9-4.3 1-2.8 3.6-5.4 4.2-5.7.6-.3 3.7 0 4.3.5.6.5 1.3.2 1.4 0 .1-.2 2.6.4 3.3.8.7.4 1.4 3.4 2.1 3.9.7.5 1.3-1.7 1.5-2.2.2-.5-.1-2-.2-2.4-.1-.4 1.8-3.7 3-4.1 1.2-.4 2.8-2.2 2.7-2.5-.1-.4 1-.5 1.3-.6.3-.1.4-3 .9-3.5s2.9-1.5 3.6-1.7c.7-.2 1.5-1.9 1.3-2.2-.2-.4 2.1-1.8 3.2-2 1.1-.2 1.9.9 1.6 1 .2-.1 1.8-.6 2.5-1 .8-.4.2-1.8-.2-2.2-.4-.5.1-1.9.7-2 .6 0 1.3-1.3 1.2-1.6-.1-.3 2.3.5 3.3 0 1-.6 0 1.7-.8 2.6-.8.8.2 1.9.7 1.8.5-.1.8.6.9.9.1.3 1.1-.1 1.7.2.6.4 1.1-.7 1.2-1.2.1-.5-1.3-1.8-1.4-2.5-.2-.7.3-4.3.3-5 .1-.8-.7-2.1-1.1-1.9-.3.1-.7-2.1-1.1-2.6-.5-.5-.4-1.6-.4-1.9.1-.4-1.4-2.5-1.7-3.4-.3-.9-.9-.8-1-.5-.1.4-1.3.3-1.9.2-.5-.1-.6-2.2-.5-2.9.1-.8-2.2-1.2-2.5-1.9-.3-.6-1.8-.6-2-1-.2-.5-1.5-1-1.7-.9-.3.1-.9 5.4-1.4 6.9-.5 1.4-1.9 2.5-2.3 2.4-.4-.1-.3 1 0 .9.3 0-1.1 1.5-1.4 2.5-.3 1.1-1.2-.2-1.3-1.3 0-1-.9-2.5-1.2-2.2-.3.3-.9-.5-1.3-.4-.4.2-2.2-1.5-3-2.1-.8-.5-.9-3.1-1.3-3.4-.5-.3 0-.5 0-.9s1.9-1.6 2.4-2.1c.6-.5 2.7-2.6 3.4-3 .8-.4 1.5-1.6 1.4-1.9-.1-.2 3.2-.8 4.1-1 .9-.2 2-2.4 2.2-3.1.2-.7-.3-2-.6-2.3-.4-.2 1.2-.1 1.7.3.5.3 2.2-.2 2.8.3.6.4 1.8 1.4 2.6 2.1l-.4 1.7-.4 3c-2.6.7-3.6 2.3-2.7 2.4.9.1 4.6 2.4 5.6 3.4s1.6-.9 2-1.6c.4-.6.6-2.5.4-2.9-.2-.4 1.3-.1 1.7.4.4.5 1-.3 1.4-.4.3-.1.7-1.7 1-2 .2-.3-.7-.8-.6-1.2 0-.4-1.6-1.4-2.2-1.8-.6-.4-.5-1.6-.2-1.8.3-.2.1-1.8-.1-2.4-.2-.5-2-1.2-2.6-1.3-.6-.1-1.1-1.6-1.4-1.9-.3-.2-2.7-.8-3.3-.8-.6.1-1.4-1.9-2.5-1.5-1.1.4-1.9-1-2.3-1.3-.4-.3-3.1 1.9-3.3 3.6-.2 1.8.4 3.6.8 3.7.4.1-.3 1.6-.8 2-.5.4-1.3-.7-.9-1 .4-.3-.7-2.4-1.1-3.2-.3-.6-1.4-1.2-2.2-1.7-.5.4-1.1.9-1.6 1.4.1.7.2 1.5-.1 2.1-.5 1-1.4 1.1-1.4.6 0-.2-.4-.4-.9-.6C20.6 45.1 9.2 63.2 3.7 84c.4.7.9 1.5 1 2 .2 1 1.7 1.8 2 2.1.3.2.7-1.7.5-2.3-.2-.6.5-.8.4-.5-.1.4 1.2 2.4 1.6 3.1.4.7.4 4.9.7 5.8.4.9 4.8 3.5 6.3 4s3.1 2.5 3.4 3c.2.5 2.2 1.1 2.6 1.3.4.3 1.2 1.8 1.6 2.1.4.4.6 1.2.6 1.4 0 .2 2.5 1.6 3 2.4.5.8 1.6.8 1.9.5.2-.3.5 1.5.7 2.1.2.6 0 2.1-.2 2.3-.2.2-1 2.8-1.5 3.3s-2 4.2-2 5c.1.8 1.1 2.6 1.6 2.9.5.3.1 1.1-.3 1.1s-.8 3.7.2 4.4c1.1.9 1.7 2.7 1.5 2.9zM51.2 69.5zM50.4 23.3c1.3 0 3.5-.1 3.7-.4.2-.3.3-1.2.1-1.5.2 0 .4.1.6.1.5.1 1.7-2.5 2.3-3 .6-.5 3.7-1.1 4.4-1.4.7-.3 2.5-1.6 3.1-1.7.6-.1 1.7-1.3 1.6-1.6-.1-.3 2.2-1.3 3.1-1.5.9-.2 1.4-1.1 1.1-1.2-.2 0-5 1.6-9.4 3.4-5.1 2.5-10 5.4-14.7 8.7 1.2 0 3.3.1 4.1.1zM108.7 167.7c1.5-.6 4.3-3.7 5.2-4.3.9-.6 1.8-3.1 2-3.7.2-.6 1.5-1.3 2-1.4.5-.1 2.7-5.6 4.1-6.7 1.4-1.1 3.7-7 3.9-9.2.2-2.2 1.7-6.3 2.1-7.2.4-1 2.2-2.5 2.8-2.8.5-.3 4.1-4.2 5.3-5.7 1.2-1.4 2.6-4.7 2.5-5.6-.1-.8-2-1.7-2.5-1.4-.4.3-2.4.4-3 .3-.6-.1-1.6-3.6-2.3-4.4-.8-.8-1-4.7-1.4-5.5-.4-.8-1.6-2.8-1.9-3.3-.4-.5-.2-2.5-.2-3.1 0-.6.8.5.8 1.3s1.8 4.4 2.4 5.6c.6 1.2 1.9 4.9 2.2 6.1.3 1.1 4.5 1.2 5.9.8 1.4-.4 3.3-1.3 3.4-1.6.1-.3 2.4-1 3-1.4.7-.4 1.5-2.8 2-3.1.5-.3.1-2.8-.2-3.6-.3-.8-2.4-1.6-2.9-1.4-.5.2-1.1-1.8-1.4-2.5-.2-.7-1.7-1.8-1.8-2.3-.1-.5.6-1.1.9-1.3.3-.1 3 2.4 3.7 3.6.7 1.2 1.4 3.3 1.5 3.6.1.4 2.5.9 3 .6.6-.3 1.2-.1 1.3.4h3.5c1 1.5 1.2 2.7 1.2 3-.1.2.6 1.4 1.1 1.6.5.2.6 2 .7 2.4.1.4 1.2 3.2 1.4 4.3.2 1.1 1.1 3.4 1.3 4 .2.6.3 2.3.2 2.7-.1.4.8 1.4 1.4 1.5.6 0 2.3-3.5 2.8-4.9.5-1.4 1.6-2.4 1.9-2.3.3 0 .6-.7.7-1 0-.3 1.5 0 1.7-.4.2-.3 1-2.8 1.6-3.1.6-.3 2.7-1.3 3.4-1.4.7-.1 2.2 1.6 2.5 2.3.3.7.4 2.6.2 2.8-.2.3.6 1.9 1.6 2 .9.1 1 1.3 1 1.8 0 .4 1 1.8 1.2 2.4.2.6-.1 2.1-.3 2.4-.2.3-.4 2.3-.3 2.9.1.6 2.5 3.8 3.4 4.8.9 1 1.8-1.6 1.4-2.4-.4-.9-2-3.1-2.3-3.7-.3-.6-.1-2.9.2-3.5.3-.6 1.6.6 2.1 1.1.5.5 1.2 1.7 1.1 2 0 .3 4-1.2 4.5-3.5s2.1-4.7 2.3-5.3c.2-.6-.2-1.5-.5-1.6-.3-.1.8-1.7 1.9-1.5 1 .2 4-2.3 4.8-3.3.8-1 2.1-1.8 2.3-1.9.2-.1 1.4-2.7 1.7-3.7.3-1.1-.2-2.9-.2-3.5 0-.6-.7-2-.9-2.5-.2-.4-.2-2 0-2.3.2-.3 1.2-.4 1.3-.7.1-.3 1.4-1.3 1.4-1.8s.6.8 1 1.3.6 3.3 1.2 3.7c.6.4 3.5-2.4 3.5-4.5s1.4-4.6 2-4.7c.5-.1 1.9-1.6 2.9-2.7-3.2-16.7-10.3-32.2-20.4-45.4-.2 0-.3 0-.4-.1l-.9-.3c-1.5-.6-2.1-2.3-1.8-2.7.1-.1.1-.4.1-.7-.7-.9-1.5-1.8-2.3-2.7-.7-.1-1.5-.2-1.9-.3-.9-.2-2.8-1.1-3.1-1.5-.3-.4-1.6.1-1.8.7-.2.7-2.3.7-2.6 1.1-.3.5-1.4.4-1.5 0-.2-.3-2.2.4-3.2.4s-2.9.5-3.4.6c-.4.1-1.6 1-1.8 1.4-.2.4-1.6.9-2 1-.4.1-.6 1.9-.1 2.2.5.3-.9-.3-1.5-.8-.6-.4-1.5.6-1.7.9-.3.4-.8-.3-.7-.9.1-.5-1.5-1.2-1.7-.8-.3.4-1.3-.3-1.8-.6-.4-.3-2.8 1.5-3.6 2.1-.9.6-4.5.7-5.1.3-.6-.4-1.5 1.4-1 1.6.6.2-1.4-.3-2.6-.3-1.1-.1-4.5.8-5.4 1.2-.9.5-1.4-.3-1.3-.8.1-.4-1.1-1-1.5-1.2-.3-.2-1.4 2.3-2.1 2.6-.7.4-1.1-2.2-2.6-2.8-1.4-.6-3.6-2.4-4.3-2.7-.6-.3-1.8-1.9-2.1-2.3-.3-.4-2.2-1.1-2.8-1.2-.6-.1-2.8.8-3.4 1.2-.6.4-1.4.2-1.7.3-.3.1-2.9 2-3.8 2.6-1 .6-2.9 3.3-3.5 4-.6.6-1.3.7-1.7.7-.3 0-.6.7-.7 1 0 .3-2.8 1.3-3.3 2.4-.4 1.1-.3 3.9-.4 4.9-.1 1 .5 3 1.3 3.1.7.1.1 1.7-.1 2.1-.3.4.3 1 .2 1.4-.1.4-1.9.7-2.5.8-.6.1-1.7 1.2-1.8 1.7-.2.4-1.9.4-2.6.9.2-.4.5-.9.7-1.2.4-.6.1-1.7-.1-2-.3-.3.1-3.4-.3-4.1-.3-.7-1.2-2-1.5-2.3-.2-.3.3-1 .6-1.3.2-.3-1.4-.8-1.9-.6-.5.2-1.1 3.2-1.5 4.1-.3.8.5 2.2.8 2.3.3.1 0 1.6-.6 1.6s-1.4 2.1-1.2 2.7c.2.6-.6 1.4-1 1.6-.4.2 2.2.4 3.3.5 1.1.1 1.9.8 1.8.9-.1.1-2.2.1-2.7.5-.4.4-2 1.2-2.3 1.5-.3.3.3 1.3.9 1.3.6 0 1 2.2 1.4 2.7.4.4.1 1.5-.2 1.8-.3.2-3-.7-4.1-.5-1.1.1-2.7 2.2-3 3-.2.8-.3 3.3-.3 4 0 .7 2.2 1.4 2.6 1.8.4.4 2.6.4 3 .6.4.3 2.2-1.9 2.6-2.9.4-1.1 3-2.7 3.6-3.4.6-.7 3-.2 3.6-.5.7-.3 0 1.9.1 3.2.1 1.3 2.5 1.4 2.3.2-.2-1.2.5-1.6.5-1.2.1.4 2.2 1.7 2.5 2.4.3.7 0 2.1-.5 2-.5-.1-.7 1.4-.2 1.7.5.2 1.5-1.6 2.1-1.8.6-.2 1.2-1.3 1-1.4-.2-.1.6-1.1.9-.7.3.4-.9-2.5-1.7-3.6-.8-1.1-.2-.6 1.4 1.2l1 1.9c.2.3.4 1.3.5 1.7l.2.6c.2.6.1 2.3.1 2.8-.1.5.8 1.5 1.4 1.5.6 0 1 .4.9.4-.1 0 .2 1.2.8 1.3.6.1 1-1.4.5-1.5-.6-.1-.2-2.3-.1-3.2.1-1 .7-1.7.9-1.6.2 0-.3 1.9-.4 2.4 0 .5.1 1.4.3 2l.5.6 1.2 1.2c2-.3 4.6.5 4.4.9-.2.4 1.4.7 1.5.1.2-.6.2 0 .1.5 0 .4-1.6 2-1.9 2.7-.3.8-4.7-.4-6.6-.8-1.9-.4-4.8-.2-5.2.4-.3.5-3-1.8-4.3-2.6-1.3-.8-2.1-3-2.3-3.3-.3-.3.4-.9.3-1.4-.1-.4-3.2-1-4.2-.8-1 .2-5.8 0-6.9.4-1.2.3-2.8-.4-3.3-.6-.5-.2-2 1.2-2.6 1.4-.7.2-1.8 2.2-2.5 4.6l-1.1 1.5-.7 1c-1.7 1-4 4.7-4.7 5.4-.6.7-1.8 6.3-2.1 8.3-.3 1.9.8 6.2 1.1 7.4.3 1.2 2.8 4.1 3.7 4.8.9.7 4 1.3 5 1.4 1 .1 2.3-.7 2.9-1.8l1.5.4.7.2c-.1.9 2.1 1.8 2.6 2.2.5.4 2 .4 2.5.3.5-.1.4 3.9-.1 5s0 5.2.2 6.5c.2 1.3 1.1 4.7 1 5.9 0 1.2-1.5 5-1.9 6.3-.4 1.4 1 5.5 1.3 6.9.3 1.4.3 4.3.2 4.9-.1.7 1.4 4.9 1.6 6.6-.5 1.9 4.5 3 6 2.4zM204 131.8c.1.3 1.5-.5 2.3-.5.8 0 1.6-2 1-2.2-.6-.3-1.1-2-1.5-2.2-.4-.2-1.4.5-1.4 1.1-.1.7-1.5.7-1.9 1.2-.3.5-.4.9-.1.9.3-.2 1.5 1.4 1.6 1.7zM200.8 142.8c.4-.1.3-2.2-.5-2.5-.8-.3-3.4 2.3-3.2 4 .2 1.7.7 1.7.9 1.3.3-.3 1.5.4 1.9.6.4.2.4-.2.1-.9-.2-.6.4-2.4.8-2.5zM196.7 140.2c.2-.7.7-3 .9-3.4.2-.4-1-2-1.6-2.3-.7-.3-3.5 4-5.2 4.6-1.7.6-2.6 3.4-2.3 4.1.3.7 3.5 1.5 4 2.1.5.6 1.2.1 1.6.1.4 0 .3-.3.2-.4-.1-.1 1.3-1.3 1.6-2.1.2-.8.6-2 .8-2.7zM186.8 146.7c-1.1-.6-2.7-.1-2.8.3-.2.4 4.5 1.9 6 2.6 1.5.7 2.5.9 2.2.6-.4-.3-4.2-2.8-5.4-3.5zM201 116.9c.5-.5-.1-3.1-.6-2.6s-.4 2-.4 2.5c.1.6.6.6 1 .1zM203.1 122.7c.4-.6-.2-1.4-1.2-1.8-1-.4-1.3 2.8-.9 3.2.5.5 1.8-.7 2.1-1.4zM205.8 142.8c1.1 1 3.9 1 4.3-.6-1.2-1-4.2-1.3-4.3.6zM210.6 104.5c-.6.3-1 1.2-.9 1.6-.1 0-.1 0-.2-.1-.4-.1-.7 1.6-.3 1.9.4.3 1.6-1.1 2.3-1.4.6-.3 1.7-.4 1.9-.2.2.1 1.2 0 2.3-.3.2-.1.4-.3.7-.6 0-1.2-.2-2.5-.3-3.7-.6.3-1.2.6-1.5.8-.8.5-3.3 1.6-4 2z"/><path class="st9" d="M177.5 133.3s.1 0 0 0c-.1-.2-.2-.2 0 0zM184.2 141.6c-.3-1.1-1.5-3-2.7-4.3l-.4-.9-.4-1c-.4-1.1-1.8-2.1-1.9-2.4-.1-.3-.7.8-1.2.4.2.2.8.7 1.5 1.4 1.3 1.2 3.1 8.6 3.6 9.2.5.5 1.8-1.3 1.5-2.4zM163.7 127.2c-.5.7 1.7 2.8 1.9 2.4.3-.4 0-2.4-.3-2.9-.4-.5-1.1-.3-1.6.5zM126 159.8c0 .8 1.6 1.7 2.1 1.7.5-.1 2.2-2.4 2.5-3.1.3-.7.7-2.2.7-2.6.1-.4.4-1.2.6-1.2.2-.1.6-.9 1-1.8.3-.9-.3-5.5-.2-6.3.1-.8-1 .3-1.3 1-.4.7-2.8 2-3.4 2.6-.6.6-1.4 2.8-1.3 3.2.1.4-.5 1.9-.7 2.3-.3.4 0 3.3 0 4.2zM42.7 178.9c.5.1 1 .1 1.5.2.4-1.5-1.4-1.5-1.5-.2zM105.7 18.8c-.6 0-2.2-.6-2.4-.9-.3-.3-2.6-.9-3.4-.7-.7.2 0-1.7 1-1.8 1-.1.3-1.5-.6-1.7-1-.2-3.5-.9-4.1-.8-.6 0-1.7-.7-2.1-.8-.4-.1-3.6.4-5 .1-1.4-.3-5-.6-5.8-.5-.8.1-1.6 1.5-1.5 2 0 .5-3.5 0-4.6-.1-1.1-.2-7.2.3-8.9.9-1.7.6-3.2 2.6-2.7 2.7.5.1-1 1.2-1.9 1.3-.9.2-2.9 0-3.4.4s.4.9.5 1.2c.1.3.8-.2 1.2.2.5.4 2.2.7 2.6 1 .4.3-1.5.3-2.5.3-.9-.1-1 1.7-.3 2.1.7.4 2.6.9 2.8.6.2-.3 2.2.6 3.1.9.9.2 1.3 2.7 1.5 3.2.2.5 0 2.3-.1 2.8-.2.5 1.4 1.7 1.8 1.4.3-.3.1.8-.6.7-.7-.2-.5 1.9.3 2.3.8.4.1 1.5-.5 1.8-.5.3-.4 1.5-1 1.8-.6.3 1.1 4.6.8 6.6-.3 2 .8 3.8 1.2 3.9.5.1 2.1.7 2.2 1.2.2.4 1.1-.2 1.4-.4.4-.3 1.2-1.2 1.8-1.9.6-.8 2.3-4.7 2.6-5.1.2-.4 2.1.1 2.5 0 .4-.2 1.8-1 2.2-1.2.4-.2 3.2-1 4.1-1.4.8-.4 2.4-2.5 3-2.9.6-.4-.2-.4-.9-1s-.3-1.1 0-1.3c.3-.2 2.3.7 3 1.1.7.4 2.3-.4 1.8-.9-.5-.5-.2-.4 0-.2s.7-1.3.5-1.6c-.2-.3 2.5-1.8 2.3-3.6-.2-1.8 1.2-3.4 1.9-3.3.7.1.8-1.9 0-2.2-.8-.3 0-.4.4-.6.3-.2 1-1.9.8-2.3-.1-.3 1.3-.5 1.6-.9.3-.4 2-.9 2.6-.9.9 0 1.5-1.5.8-1.5zM119.5 22.2c-.7-.4-2.4.2-2.3.8.1.5-1.2-.8-2.3-.4-1.1.4-1.6 2.1-1.2 2.4.4.3.6 1.8.5 2 0 .3 2 .4 2.5 0 .6-.3.2 1.5-.3 1.9-.6.4 0 1.5.5 1.7.5.2 1.1 1.5 1.7 1.6.6.1 1.8-2 2.2-2.7.3-.8 2.1.1 2.9.5.8.4 1.6-2.8.7-3.4-.9-.6-2-.5-2.4-1-.3-.4-.9-.9-1.4-1-.3-.1-.4-2-1.1-2.4zM126.7 24.8c1.5.4 3.3-.6 3.8-.9.4-.3-4-1.9-5.7-2.2-1.7-.3-3.1-.3-3.2.1 0 .4 3.6 2.6 5.1 3zM93.3 61.7c-.4-.2-.8 1.2-.8 1.8 0 .6 1.4.7 2 .7.6 0 1.1-.4 1.2-.9 0-.5-.5-2.8-.8-2.9-.4 0-1.2 1.6-1.6 1.3zM100.3 45c-.2-.6-2.6-.9-3.2-1-.5-.1-2.3-1-2.5-1.4-.3-.4-.8 1.4-1.4 1.5-.6.2.2.6.4.5.2-.2-.1.9-.4 1.3-.3.4 1.5.9 1.6 1.5.1.6.8 1.1 1.5 1.1s2.3-.5 2.8-.5 1.4-2.4 1.2-3zM152 38.6c.9-.7 4.4-1.3 4.9-2.1s0-1.6-.4-1.6c-.3 0-.8.3-.9.4-.1.1-4.1.5-5.3.9-1.2.4-2.7 1.1-3.3 1.5-.6.4-1.9 4.1-2.3 4.5-.3.4 1 2.2 1.6 2.7.6.5 1.6.4 1.9.4.3 0 0-2.8-.2-3.8s3.1-2.2 4-2.9zM149.3 28c1.1 1.5 2-.3 3.4.1.4-2.5-3.2-2.1-3.4-.1zM173.8 32c-.1.5 3.4 1.3 4.4 1.3 1.1 0 0-1.8-1.5-1.9-1.4-.1-2.8.2-2.9.6zM41.9 39.9c-.4.3-.4 2.1.3 2.2.7.1 2.2-2.3 3-1.7.8.7 1.4 1 1.2.7-.1-.3-2.4-1.7-2.7-2-.2-.2-1.4.5-1.8.8zM42.5 100c0 .3 1.5.5 1.8 0 .3-.4.2-.8-.2-.9-.3-.1-1.5.6-1.6.9zM36 96.5c.8 0 .2 1.1.3 1.6.1.5 1.9 1.1 2.1 1.4.3.3 1.3-.4 2-.2s.1-2.5-1.1-2.6c-1.2-.1-2-1.4-2.2-1.6-.3-.2-1.5-1.2-1.9-1.6-.3-.4-3.3-1.1-4.4-1.2-1-.1-2.3.7-2.5 1-.2.3 1.5.8 2.1.6.6-.2 2.9.7 3.3 1.4.6.7 1.6 1.2 2.3 1.2zM32.4 98.5c0 .3 1.5.3 1.9.4.4.1.4-.2.1-.6-.4-.3-1.9-.1-2 .2zM34.7 90.7c-.4-.2-.8.4-.8.7-.1.3.1.6.4.6.2 0 .8-1.1.4-1.3zM37.9 91.4c-.1-.3-.7-.7-.9-.7-.2 0-.4.5-.5 1.1-.1.6 1.5-.1 1.4-.4zM39.7 95.3c.7-.2.9-1 .5-1s-.9-1.2-1.3-1.5c-.4-.2-.8.6-.9.9 0 .4.2.7.4.6.4.1.7 1.2 1.3 1zM210.2 144.8c-.3.1-2 .1-2.1-.3-.2-.3-.6.6-1 .7-.4.1-.3 1 .2.8.4-.1 1.8.9 2.9 1.8.4-1.2.8-2.3 1.2-3.5-.4.2-.9.4-1.2.5z"/><path class="st10" d="M54.3 21.6c-.1-.1-.6.1-.4.4 0 .1.5-.1.4-.4zM61.1 58.7c-.1-.1-.6.1-.4.4 0 .1.5-.2.4-.4z"/><g><path class="st3" d="M64.1 136.4c.4-.4 2-1.9 2.1-2.2.1-.4.4-1.3.8-2.1l.1-.9.2-1.5c-.3-1.2-1.3-2.9-1.7-2.6-.4.3-1.7-1.3-2.4-1.7-.7-.4-2.6-.9-3-.9-.5-.1-1.9-1.7-2.6-2-.7-.3-2.6-1-2.9-1.2-.3-.3-.4-3.2-1.8-4.3-1.4-1.1-3.8-3.7-4-4.5-.2-.8-2.9-2.9-3.7-3.5-.8-.6-2.2-.9-2.4-.8-.2.1-1.1-1.7-1.6-2.3-.5-.6-2.2-1.2-2.4-.8-.1.4-1.3 0-1.5-.4-.2-.4-1.2 0-1.6.1-.4.1-2.2 2.1-3 2.5-.7.4-1.4-.7-1.8-1-.4-.3-2.2 0-2.7.3s-1.2-2.6-.8-3.8c.4-1.2-.6-3.8-1.6-4.1-1-.2-1-2.8-.6-3.8.3-.9-1.7-1.8-2.2-1.9-.5-.2-2 1-2.3 1.6-.3.6-4.8-1.6-3.9-4.3 1-2.8 3.6-5.4 4.2-5.7.6-.3 3.7 0 4.3.5.6.5 1.3.2 1.4 0 .1-.2 2.6.4 3.3.8.7.4 1.4 3.4 2.1 3.9.7.5 1.3-1.7 1.5-2.2.2-.5-.1-2-.2-2.4-.1-.4 1.8-3.7 3-4.1 1.2-.4 2.8-2.2 2.7-2.5-.1-.4 1-.5 1.3-.6.3-.1.4-3 .9-3.5s2.9-1.5 3.6-1.7c.7-.2 1.5-1.9 1.3-2.2-.2-.4 2.1-1.8 3.2-2 1.1-.2 1.9.9 1.6 1 .2-.1 1.8-.6 2.5-1 .8-.4.2-1.8-.2-2.2-.4-.5.1-1.9.7-2 .6 0 1.3-1.3 1.2-1.6-.1-.3 2.3.5 3.3 0 1-.6 0 1.7-.8 2.6-.8.8.2 1.9.7 1.8.5-.1.8.6.9.9.1.3 1.1-.1 1.7.2.6.4 1.1-.7 1.2-1.2.1-.5-1.3-1.8-1.4-2.5-.2-.7.3-4.3.3-5 .1-.8-.7-2.1-1.1-1.9-.3.1-.7-2.1-1.1-2.6-.5-.5-.4-1.6-.4-1.9.1-.4-1.4-2.5-1.7-3.4-.3-.9-.9-.8-1-.5-.1.4-1.3.3-1.9.2-.5-.1-.6-2.2-.5-2.9.1-.8-2.2-1.2-2.5-1.9-.3-.6-1.8-.6-2-1-.2-.5-1.5-1-1.7-.9-.3.1-.9 5.4-1.4 6.9-.5 1.4-1.9 2.5-2.3 2.4-.4-.1-.3 1 0 .9.3 0-1.1 1.5-1.4 2.5-.3 1.1-1.2-.2-1.3-1.3 0-1-.9-2.5-1.2-2.2-.3.3-.9-.5-1.3-.4-.4.2-2.2-1.5-3-2.1-.8-.5-.9-3.1-1.3-3.4-.5-.3 0-.5 0-.9s1.9-1.6 2.4-2.1c.6-.5 2.7-2.6 3.4-3 .8-.4 1.5-1.6 1.4-1.9-.1-.2 3.2-.8 4.1-1 .9-.2 2-2.4 2.2-3.1.2-.7-.3-2-.6-2.3-.4-.2 1.2-.1 1.7.3.5.3 2.2-.2 2.8.3.6.4 1.8 1.4 2.6 2.1l-.4 1.7-.4 2.8c-2.6.7-3.6 2.3-2.7 2.4.9.1 4.6 2.4 5.6 3.4s1.6-.9 2-1.6c.4-.6.6-2.5.4-2.9-.2-.4 1.3-.1 1.7.4.4.5 1-.3 1.4-.4.3-.1.7-1.7 1-2 .2-.3-.7-.8-.6-1.2 0-.4-1.6-1.4-2.2-1.8-.6-.4-.5-1.6-.2-1.8.3-.2.1-1.8-.1-2.4-.2-.5-2-1.2-2.6-1.3-.6-.1-1.1-1.6-1.4-1.9-.3-.2-2.7-.8-3.3-.8-.6.1-1.4-1.9-2.5-1.5-1.1.4-1.9-1-2.3-1.3-.4-.3-3.1 1.9-3.3 3.6-.2 1.8.4 3.6.8 3.7.4.1-.3 1.6-.8 2-.5.4-1.3-.7-.9-1 .4-.3-.7-2.4-1.1-3.2-.3-.6-1.4-1.2-2.2-1.7-.5.4-1.1.9-1.6 1.4.1.7.2 1.5-.1 2.1-.5 1-1.4 1.1-1.4.6 0-.2-.4-.4-.9-.6C20.6 45.1 9.2 63.2 3.7 84c.4.7.9 1.5 1 2 .2 1 1.7 1.8 2 2.1.3.2.7-1.7.5-2.3-.2-.6.5-.8.4-.5-.1.4 1.2 2.4 1.6 3.1.4.7.4 4.9.7 5.8.4.9 4.8 3.5 6.3 4s3.1 2.5 3.4 3c.2.5 2.2 1.1 2.6 1.3.4.3 1.2 1.8 1.6 2.1.4.4.6 1.2.6 1.4 0 .2 2.5 1.6 3 2.4.5.8 1.6.8 1.9.5.2-.3.5 1.5.7 2.1.2.6 0 2.1-.2 2.3-.2.2-1 2.8-1.5 3.3s-2 4.2-2 5c.1.8 1.1 2.6 1.6 2.9.5.3.1 1.1-.3 1.1s-.8 3.7.2 4.4c.9.7 1.5 2.5 1.3 2.7-.2.3 1.4 2.5 2.1 3.3.6.8 1.7 4.2 1.9 5.3.2 1.1-.3 2.8-.4 3.2-.2.4.2 1.3.2 1.7 0 .4-1.2 3.4-1.1 4.7.1 1.3-2.2 5-2.5 7-.2 2 .3 4.7.7 4.5.4-.2.2 1.9-.4 2-.6.2-1.6 1.6-1.2 1.7.3.1-.3 1.6-.3 2.3 0 .6-.1 4.8-.1 5.8s1.1 3.7 1.2 4.6c.2.9.3 2.5.4 2.8.1.3.2.5.2.5s1.1.6 1.4.9c.3.3 2.6.5 3.4.4.8-.1.2-.8-.1-1.3-.3-.4-.3-2.3-.7-2.5-.4-.2-.2-2.6.2-3 .4-.5 1.9-1.1 2.1-1.5.2-.4.6-2.4.2-2.7-.3-.3.5-2.7.4-3.9-.1-1.3 2.4-2 2.7-3 .3-.9 3-1.6 3.7-2 .6-.4 1.5-3.1 1.4-3.7-.2-.6 1.1-.9 1.7-.8.5.1 1.2-.2 1.4-.2.2 0 1-1.1 1.4-1.3.4-.2 1.5-3 2.2-3.4.7-.4 1.5-2.1 1.6-2.6.1-.5 1.3-1.9 1.7-2.3.4-.4 2.9-1.2 3.4-1.3.5-.1 1.7-3.9 2-5.2.4-1.4 1.3-3.1 1.5-3.6.1-.4.9-.7 1.1-.9.4.2 1.2-1.5 1.6-1.8zM51.3 69.5h-.1M57.1 18.4c.6-.5 3.7-1.1 4.4-1.4.7-.3 2.5-1.6 3.1-1.7.6-.1 1.7-1.3 1.6-1.6-.1-.3 2.2-1.3 3.1-1.5.9-.2 1.4-1.1 1.1-1.2-.2 0-5 1.6-9.4 3.4-5.1 2.5-10 5.4-14.7 8.7 1.3.1 3.3.1 4.2.1 1.3 0 3.5-.1 3.7-.4.2-.3.3-1.2.1-1.5.2 0 .4.1.6.1.4.1 1.6-2.4 2.2-3zM164.1 45.3c0 .1-.1.1-.1.1-.3.4-.8-.3-.7-.9.1-.5-1.5-1.2-1.7-.8-.3.4-1.3-.3-1.8-.6-.4-.3-2.8 1.5-3.6 2.1-.9.6-4.5.7-5.1.3-.6-.4-1.5 1.4-1 1.6.6.2-1.4-.3-2.6-.3-1.1-.1-4.5.8-5.4 1.2-.9.5-1.4-.3-1.3-.8.1-.4-1.1-1-1.5-1.2-.3-.2-1.4 2.3-2.1 2.6-.7.4-1.1-2.2-2.6-2.8-1.4-.6-3.6-2.4-4.3-2.7-.6-.3-1.8-1.9-2.1-2.3-.3-.4-2.2-1.1-2.8-1.2-.6-.1-2.8.8-3.4 1.2-.6.4-1.4.2-1.7.3-.3.1-2.9 2-3.8 2.6-1 .6-2.9 3.3-3.5 4-.6.6-1.3.7-1.7.7-.3 0-.6.7-.7 1 0 .3-2.8 1.3-3.3 2.4-.4 1.1-.3 3.9-.4 4.9-.1 1 .5 3 1.3 3.1.7.1.1 1.7-.1 2.1-.3.4.3 1 .2 1.4-.1.4-1.9.7-2.5.8-.6.1-1.7 1.2-1.8 1.7-.2.4-1.9.4-2.6.9.2-.4.5-.9.7-1.2.4-.6.1-1.7-.1-2-.3-.3.1-3.4-.3-4.1-.3-.7-1.2-2-1.5-2.3-.2-.3.3-1 .6-1.3.2-.3-1.4-.8-1.9-.6-.5.2-1.1 3.2-1.5 4.1-.3.8.5 2.2.8 2.3.3.1 0 1.6-.6 1.6s-1.4 2.1-1.2 2.7c.2.6-.6 1.4-1 1.6-.4.2 2.2.4 3.3.5 1.1.1 1.9.8 1.8.9-.1.1-2.2.1-2.7.5-.4.4-2 1.2-2.3 1.5-.3.3.3 1.3.9 1.3.6 0 1 2.2 1.4 2.7.4.4.1 1.5-.2 1.8-.3.2-3-.7-4.1-.5-1.1.1-2.7 2.2-3 3-.2.8-.3 3.3-.3 4 0 .7 2.2 1.4 2.6 1.8.4.4 2.6.4 3 .6.4.3 2.2-1.9 2.6-2.9.4-1.1 3-2.7 3.6-3.4.6-.7 3-.2 3.6-.5.7-.3 0 1.9.1 3.2.1 1.3 2.5 1.4 2.3.2-.2-1.2.5-1.6.5-1.2.1.4 2.2 1.7 2.5 2.4.3.7 0 2.1-.5 2-.5-.1-.7 1.4-.2 1.7.5.2 1.5-1.6 2.1-1.8.6-.2 1.2-1.3 1-1.4-.2-.1.6-1.1.9-.7.3.4-.9-2.5-1.7-3.6-.8-1.1-.2-.6 1.4 1.2l1 1.9c.2.3.4 1.3.5 1.7l.2.6c.2.6.1 2.3.1 2.8-.1.5.8 1.5 1.4 1.5.6 0 1 .4.9.4-.1 0 .2 1.2.8 1.3.6.1 1-1.4.5-1.5-.6-.1-.2-2.3-.1-3.2.1-1 .7-1.7.9-1.6.2 0-.3 1.9-.4 2.4 0 .5.1 1.4.3 2l.5.6 1.2 1.2c2-.3 4.6.5 4.4.9-.2.4 1.4.7 1.5.1.2-.6.2 0 .1.5 0 .4-1.6 2-1.9 2.7-.3.8-4.7-.4-6.6-.8-1.9-.4-4.8-.2-5.2.4-.3.5-3-1.8-4.3-2.6-1.3-.8-2.1-3-2.3-3.3-.3-.3.4-.9.3-1.4-.1-.4-3.2-1-4.2-.8-1 .2-5.8 0-6.9.4-1.2.3-2.8-.4-3.3-.6-.5-.2-2 1.2-2.6 1.4-.7.2-1.8 2.2-2.5 4.6l-1.1 1.5-.7 1c-1.7 1-4 4.7-4.7 5.4-.6.7-1.8 6.3-2.1 8.3-.3 1.9.8 6.2 1.1 7.4.3 1.2 2.8 4.1 3.7 4.8.9.7 4 1.3 5 1.4 1 .1 2.3-.7 2.9-1.8l1.5.4.7.2c-.1.9 2.1 1.8 2.6 2.2.5.4 2 .4 2.5.3.5-.1.4 3.9-.1 5s0 5.2.2 6.5c.2 1.3 1.1 4.7 1 5.9 0 1.2-1.5 5-1.9 6.3-.4 1.4 1 5.5 1.3 6.9.3 1.4.3 4.3.2 4.9-.1.7 1.4 4.9 1.6 6.6.2 1.7 5.3 2.8 6.8 2.2 1.5-.6 4.3-3.7 5.2-4.3.9-.6 1.8-3.1 2-3.7.2-.6 1.5-1.3 2-1.4.5-.1 2.7-5.6 4.1-6.7 1.4-1.1 3.7-7 3.9-9.2.2-2.2 1.7-6.3 2.1-7.2.4-1 2.2-2.5 2.8-2.8.5-.3 4.1-4.2 5.3-5.7 1.2-1.4 2.6-4.7 2.5-5.6-.1-.8-2-1.7-2.5-1.4-.4.3-2.4.4-3 .3-.6-.1-1.6-3.6-2.3-4.4-.8-.8-1-4.7-1.4-5.5-.4-.8-1.6-2.8-1.9-3.3-.4-.5-.2-2.5-.2-3.1 0-.6.8.5.8 1.3s1.8 4.4 2.4 5.6c.6 1.2 1.9 4.9 2.2 6.1.3 1.1 4.5 1.2 5.9.8 1.4-.4 3.3-1.3 3.4-1.6.1-.3 2.4-1 3-1.4.7-.4 1.5-2.8 2-3.1.5-.3.1-2.8-.2-3.6-.3-.8-2.4-1.6-2.9-1.4-.5.2-1.1-1.8-1.4-2.5-.2-.7-1.7-1.8-1.8-2.3-.1-.5.6-1.1.9-1.3.3-.1 3 2.4 3.7 3.6.7 1.2 1.4 3.3 1.5 3.6.1.4 2.5.9 3 .6.6-.3 1.2-.1 1.3.4h3.5c1 1.5 1.2 2.7 1.2 3-.1.2.6 1.4 1.1 1.6.5.2.6 2 .7 2.4.1.4 1.2 3.2 1.4 4.3.2 1.1 1.1 3.4 1.3 4 .2.6.3 2.3.2 2.7-.1.4.8 1.4 1.4 1.5.6 0 2.3-3.5 2.8-4.9.5-1.4 1.6-2.4 1.9-2.3.3 0 .6-.7.7-1 0-.3 1.5 0 1.7-.4.2-.3 1-2.8 1.6-3.1.6-.3 2.7-1.3 3.4-1.4.2 0 .5.1.8.3.3-1.5.5-2.9.7-4.4 3.1-23.4-1.3-46.1-11.5-65.6zM165.7 129.6c.3-.4 0-2.4-.3-2.9-.4-.5-1.1-.3-1.6.5-.6.7 1.6 2.7 1.9 2.4z"/><path class="st3" d="M126 159.8c0 .8 1.6 1.7 2.1 1.7.5-.1 2.2-2.4 2.5-3.1.3-.7.7-2.2.7-2.6.1-.4.4-1.2.6-1.2.2-.1.6-.9 1-1.8.3-.9-.3-5.5-.2-6.3.1-.8-1 .3-1.3 1-.4.7-2.8 2-3.4 2.6-.6.6-1.4 2.8-1.3 3.2.1.4-.5 1.9-.7 2.3-.3.4 0 3.3 0 4.2zM42.7 178.9c.5.1 1 .1 1.5.2.4-1.5-1.4-1.5-1.5-.2zM77.2 13.6c-1.1-.2-7.2.3-8.9.9-1.7.6-3.2 2.6-2.7 2.7.5.1-1 1.2-1.9 1.3-.9.2-2.9 0-3.4.4s.4.9.5 1.2c.1.3.8-.2 1.2.2.5.4 2.2.7 2.6 1 .4.3-1.5.3-2.5.3-.9-.1-1 1.7-.3 2.1.7.4 2.6.9 2.8.6.2-.3 2.2.6 3.1.9.9.2 1.3 2.7 1.5 3.2.2.5 0 2.3-.1 2.8-.2.5 1.4 1.7 1.8 1.4.3-.3.1.8-.6.7-.7-.2-.5 1.9.3 2.3.8.4.1 1.5-.5 1.8-.5.3-.4 1.5-1 1.8-.6.3 1.1 4.6.8 6.6-.3 2 .8 3.8 1.2 3.9.5.1 2.1.7 2.2 1.2.2.4 1.1-.2 1.4-.4.4-.3 1.2-1.2 1.8-1.9.6-.8 2.3-4.7 2.6-5.1.2-.4 2.1.1 2.5 0 .4-.2 1.8-1 2.2-1.2.4-.2 3.2-1 4.1-1.4.8-.4 2.4-2.5 3-2.9.6-.4-.2-.4-.9-1s-.3-1.1 0-1.3c.3-.2 2.3.7 3 1.1.7.4 2.3-.4 1.8-.9-.5-.5-.2-.4 0-.2s.7-1.3.5-1.6c-.2-.3 2.5-1.8 2.3-3.6-.2-1.8 1.2-3.4 1.9-3.3.7.1.8-1.9 0-2.2-.8-.3 0-.4.4-.6.3-.2 1-1.9.8-2.3-.1-.3 1.3-.5 1.6-.9.3-.4 2-.9 2.6-.9.6 0 1.1-1.5.5-1.5-.6 0-2.2-.6-2.4-.9-.3-.3-2.6-.9-3.4-.7-.7.2 0-1.7 1-1.8 1-.1.3-1.5-.6-1.7-1-.2-3.5-.9-4.1-.8-.6 0-1.7-.7-2.1-.8-.4-.1-3.6.4-5 .1-1.4-.3-5-.6-5.8-.5-.8.1-1.6 1.5-1.5 2 .3.5-3.2 0-4.3-.1zM117 30.7c.5.2 1.1 1.5 1.7 1.6.6.1 1.8-2 2.2-2.7.3-.8 2.1.1 2.9.5.8.4 1.6-2.8.7-3.4-.9-.6-2-.5-2.4-1-.3-.4-.9-.9-1.4-1-.4-.1-.5-2.1-1.2-2.5-.7-.4-2.4.2-2.3.8.1.5-1.2-.8-2.3-.4-1.1.4-1.6 2.1-1.2 2.4.4.3.6 1.8.5 2 0 .3 2 .4 2.5 0 .6-.3.2 1.5-.3 1.9-.5.5 0 1.6.6 1.8zM130.5 24c.4-.3-4-1.9-5.7-2.2-1.7-.3-3.1-.3-3.2.1 0 .3 3.7 2.5 5.2 3 1.4.4 3.3-.6 3.7-.9zM93.3 61.7c-.4-.2-.8 1.2-.8 1.8 0 .6 1.4.7 2 .7.6 0 1.1-.4 1.2-.9 0-.5-.5-2.8-.8-2.9-.4 0-1.2 1.6-1.6 1.3zM100.3 45c-.2-.6-2.6-.9-3.2-1-.5-.1-2.3-1-2.5-1.4-.3-.4-.8 1.4-1.4 1.5-.6.2.2.6.4.5.2-.2-.1.9-.4 1.3-.3.4 1.5.9 1.6 1.5.1.6.8 1.1 1.5 1.1s2.3-.5 2.8-.5 1.4-2.4 1.2-3zM147 37.7c-.6.4-1.9 4.1-2.3 4.5-.3.4 1 2.2 1.6 2.7.6.5 1.6.4 1.9.4.3 0 0-2.8-.2-3.8s3-2.2 3.9-2.9c.9-.7 4.4-1.3 4.9-2.1s0-1.6-.4-1.6c-.3 0-.8.3-.9.4-.1.1-4.1.5-5.3.9-1.1.4-2.6 1-3.2 1.5zM149.3 28c1.1 1.5 2-.3 3.4.1v-.2l-1.2-1.5c-.9-.1-2.1.5-2.2 1.6zM41.9 39.9c-.4.3-.4 2.1.3 2.2.7.1 2.2-2.3 3-1.7.8.7 1.4 1 1.2.7-.1-.3-2.4-1.7-2.7-2-.2-.2-1.4.5-1.8.8zM42.5 100c0 .3 1.5.5 1.8 0 .3-.4.2-.8-.2-.9-.3-.1-1.5.6-1.6.9zM36 96.5c.8 0 .2 1.1.3 1.6.1.5 1.9 1.1 2.1 1.4.3.3 1.3-.4 2-.2s.1-2.5-1.1-2.6c-1.2-.1-2-1.4-2.2-1.6-.3-.2-1.5-1.2-1.9-1.6-.3-.4-3.3-1.1-4.4-1.2-1-.1-2.3.7-2.5 1-.2.3 1.5.8 2.1.6.6-.2 2.9.7 3.3 1.4.6.7 1.6 1.2 2.3 1.2zM32.4 98.5c0 .3 1.5.3 1.9.4.4.1.4-.2.1-.6-.4-.3-1.9-.1-2 .2zM34.7 90.7c-.4-.2-.8.4-.8.7-.1.3.1.6.4.6.2 0 .8-1.1.4-1.3zM37.9 91.4c-.1-.3-.7-.7-.9-.7-.2 0-.4.5-.5 1.1-.1.6 1.5-.1 1.4-.4zM39.7 95.3c.7-.2.9-1 .5-1s-.9-1.2-1.3-1.5c-.4-.2-.8.6-.9.9 0 .4.2.7.4.6.4.1.7 1.2 1.3 1z"/></g><path d="M52 0C35.3 0 21.8 13.5 21.8 30.3 21.8 47 52 92.8 52 92.8S82.3 47 82.3 30.3C82.3 13.5 68.7 0 52 0zm1.7 40.7c-6.3 1.2-11.7-4.2-10.5-10.5.6-3.5 3.5-6.4 7-7.1 6.4-1.3 11.8 4.2 10.6 10.6-.7 3.6-3.6 6.4-7.1 7z" style="fill:#0561fc"/></g></svg>
